<svg width="60" height="67" viewBox="0 0 60 67" fill="none" xmlns="http://www.w3.org/2000/svg">
<path d="M44.7975 35.384L44.7823 39.2962C44.7823 39.3491 44.7823 39.3945 44.7748 39.4475C44.7748 39.5534 44.7521 39.6518 44.7294 39.7502C44.684 39.9318 44.6234 40.0983 44.5175 40.2572C44.4872 40.295 44.457 40.3329 44.4267 40.3707C44.3056 40.5145 44.1694 40.6507 44.0029 40.749C43.9878 40.7566 43.9802 40.7718 43.9651 40.7793C40.0756 42.9057 36.1785 45.0093 32.2739 47.113L30.5637 48.0286C30.3669 48.1346 30.1475 48.1875 29.928 48.1875C29.7086 48.1875 29.4892 48.1346 29.2924 48.0286L27.5822 47.113C23.6776 45.0169 19.7729 42.9057 15.891 40.7793C15.8759 40.7793 15.8683 40.7642 15.8532 40.749C15.6867 40.6507 15.5505 40.522 15.4294 40.3707C15.3991 40.3329 15.3613 40.295 15.3386 40.2572C15.2402 40.1058 15.1721 39.9318 15.1267 39.7502C15.104 39.6518 15.0813 39.5534 15.0813 39.4475C15.0813 39.4021 15.0738 39.3491 15.0738 39.2962V35.384H15.0586V22.9436C15.0586 21.9371 14.5062 21.0064 13.6209 20.5221L4.23761 15.4218C2.40636 14.423 0.174057 15.7548 0.174057 17.8433V40.2421C0.174057 40.3329 0.189183 40.4237 0.189183 40.5145C0.189183 40.7112 0.189183 40.908 0.189183 41.0971C0.189183 43.0343 0.189198 44.9639 0.204332 46.8936C0.204332 47.446 0.204332 47.9984 0.204332 48.5508C0.204332 48.5508 0.204332 48.5508 0.204332 48.5583C0.204332 48.6945 0.242173 48.8232 0.257308 48.9594C0.280009 49.2091 0.295124 49.4588 0.355661 49.6934C0.431332 49.981 0.567557 50.2458 0.703766 50.5031C0.741602 50.5788 0.756739 50.662 0.802142 50.7377C0.855112 50.8209 0.930776 50.889 0.983746 50.9723C1.35454 51.5171 1.83127 51.9862 2.42907 52.3192C8.41468 55.6109 14.4381 58.8723 20.4616 62.1262C23.3219 63.6775 26.1672 65.2439 29.0351 66.7876C29.3151 66.9389 29.6254 67.007 29.928 66.9995C30.2383 66.9995 30.541 66.9389 30.821 66.7876C33.6813 65.2439 36.5266 63.6775 39.387 62.1262C45.418 58.8723 51.4414 55.6033 57.4346 52.3116C58.0324 51.9862 58.5091 51.5095 58.8799 50.9647C58.9329 50.8814 59.0086 50.8209 59.0615 50.7301C59.1069 50.6544 59.1221 50.5712 59.1599 50.4955C59.2961 50.2382 59.4247 49.9734 59.508 49.6858C59.5761 49.4513 59.5837 49.194 59.6064 48.9518C59.6215 48.8156 59.6593 48.6945 59.6593 48.5583C59.6593 48.5583 59.6593 48.5508 59.6593 48.5432C59.6593 47.9908 59.6593 47.4384 59.6593 46.886C59.6745 44.9488 59.6745 43.0192 59.6745 41.0896C59.6745 40.8928 59.6745 40.6961 59.6745 40.5069C59.6745 40.4161 59.6896 40.3253 59.6896 40.2345V17.8358C59.6896 15.7472 57.4573 14.423 55.626 15.4143L46.2428 20.5145C45.3574 20.9988 44.805 21.922 44.805 22.936V35.3764" fill="white"/>
<path d="M0.839964 9.45892L13.3787 16.0348C14.423 16.5796 15.6716 15.8229 15.6716 14.65V1.57397C15.6716 0.711312 14.9678 0.00756836 14.1052 0.00756836H1.5664C0.703749 0.00756836 0 0.711312 0 1.57397V8.0817C0 8.66437 0.325399 9.20164 0.839964 9.46649V9.45892Z" fill="white"/>
<path d="M58.2594 0H45.7206C44.858 0 44.1542 0.703743 44.1542 1.5664V15.3386C44.1542 16.5266 45.4331 17.2833 46.4698 16.7158L59.0085 9.85998C59.5079 9.58756 59.8258 9.05786 59.8258 8.48276V1.5664C59.8258 0.703743 59.122 0 58.2594 0Z" fill="white"/>
</svg>
